# xmcd
#
# Track frame offsets:
#	150
#	18509
#	38385
#	53191
#	68444
#	81886
#	96944
#	111444
#	133099
#	155496
#	169113
#	185452
#	200171
#	221452
#	238377
#	253244
#	269085
#	284468
#	300269
#
# Disc length: 4238 seconds
#
# Revision: 1
# Processed by: cddbd v1.5.2PL0 Copyright (c) Steve Scherf et al.
# Submitted via: audiograbber 1.83.01
#
DISCID=19108c13
DTITLE=Various Artist - Award Winning Country Volume 13
DYEAR=2014
DGENRE=Country
TTITLE0=Lee Brice - I Drive Your Truck
TTITLE1=Eric Church - Springsteen
TTITLE2=Lady Antebellum - All For Love (Album Version)
TTITLE3=Luke Bryan - Kiss Tomorrow Goodbye
TTITLE4=Miranda Lambert - Mama's Broken Heart
TTITLE5=Kacey Musgraves - Follow Your Arrow (Album Version)
TTITLE6=The Band Perry - Better Dig Two (Album Version)
TTITLE7=Blake Shelton - Boys 'Round Here
TTITLE8=Darius Rucker - Wagon Wheel (Album Version)
TTITLE9=Brett Eldredge - Don't Ya
TTITLE10=Love And Theft - Night That You'll Never Forget
TTITLE11=Lee Kernaghan - It's Only Country
TTITLE12=Troy Cassar-Daley and Adam Harvey - Good Hearted Woman
TTITLE13=O'Shea - Thank You Angels
TTITLE14=Sara Storer - Come On Rain
TTITLE15=Luke O'Shea - Lady Of The Land
TTITLE16=Pistol Annies - Hush Hush
TTITLE17=The Civil Wars - From This Valley
TTITLE18=Ashleigh Dallas - Dancing With A Ghost
EXTD=
EXTT0=
EXTT1=
EXTT2=
EXTT3=
EXTT4=
EXTT5=
EXTT6=
EXTT7=
EXTT8=
EXTT9=
EXTT10=
EXTT11=
EXTT12=
EXTT13=
EXTT14=
EXTT15=
EXTT16=
EXTT17=
EXTT18=
PLAYORDER=
